# xmcd
#
# Track frame offsets:
#	150
#	12830
#	23484
#	34064
#	47307
#	55187
#	66218
#	77211
#	88316
#	99307
#	111388
#	124707
#	134574
#	147742
#	156222
#	167703
#	176716
#	188272
#	200390
#
# Disc length: 2819 seconds
#
# Revision: 0
# Processed by: cddbd v1.5.2PL0 Copyright (c) Steve Scherf et al.
# Submitted via: EasyCDDAExtractor 16.0.1.1
#
DISCID=000b0113
DTITLE=Bill Clifton - The Early Years 1957-58
DYEAR=1958
DGENRE=Bluegrass
TTITLE0=The Girl I Left In Sunny Tennessee
TTITLE1=Dixie Darlin'
TTITLE2=You Don't Think About Me When I'm Gone
TTITLE3=I'll Be There Mary Dear
TTITLE4=Paddy On The Turnpike
TTITLE5=I'll Wander Back Someday
TTITLE6=Darlin' Corey
TTITLE7=When You Kneel At Mother's Grave
TTITLE8=Blue Ridge Mountain Blues
TTITLE9=Are You Alone
TTITLE10=Springhill Disaster
TTITLE11=I'm Living The Right Life Now
TTITLE12=Lonely Heart Blues
TTITLE13=Cedar Grove
TTITLE14=You Go To Your Church
TTITLE15=Walking In My Sleep
TTITLE16=Pal Of Yesterday
TTITLE17=Just Another Broken Heart
TTITLE18=Little White Washed Chimney
EXTD=
EXTT0=
EXTT1=
EXTT2=
EXTT3=
EXTT4=
EXTT5=
EXTT6=
EXTT7=
EXTT8=
EXTT9=
EXTT10=
EXTT11=
EXTT12=
EXTT13=
EXTT14=
EXTT15=
EXTT16=
EXTT17=
EXTT18=
PLAYORDER=
